<?xml version="1.0" encoding="utf-8"?>
<!-- Generator: Adobe Illustrator 23.0.3, SVG Export Plug-In . SVG Version: 6.00 Build 0)  -->
<svg version="1.1" id="Layer_1" xmlns="http://www.w3.org/2000/svg" xmlns:xlink="http://www.w3.org/1999/xlink" x="0px" y="0px"
	 viewBox="0 0 87 17" style="enable-background:new 0 0 87 17;" xml:space="preserve">
<style type="text/css">
	.st0{fill:#81B3D2;}
</style>
<path class="st0" d="M9,0l2.1,6.5H18l-5.6,4l2.1,6.5L9,13l-5.6,4l2.1-6.5L0,6.5h6.9L9,0z"/>
<path class="st0" d="M32,0l2.1,6.5H41l-5.6,4l2.1,6.5L32,13l-5.6,4l2.1-6.5l-5.6-4h6.9L32,0z"/>
<path class="st0" d="M55,0l2.1,6.5H64l-5.6,4l2.1,6.5L55,13l-5.6,4l2.1-6.5l-5.6-4h6.9L55,0z"/>
<path class="st0" d="M78,0l2.1,6.5H87l-5.6,4l2.1,6.5L78,13l-5.6,4l2.1-6.5l-5.6-4h6.9L78,0z"/>
</svg>
